<svg width="211" height="87" viewBox="0 0 211 87" fill="none" xmlns="http://www.w3.org/2000/svg">
<path d="M98.7959 14.4392C96.5117 16.4591 94.1059 19.2403 91.057 20.0399C88.6651 20.6588 86.1515 19.953 84.0169 18.8475C79.32 16.4139 74.8665 11.3068 76.4901 5.66078C77.1402 3.40447 80.1127 0.724021 82.6575 1.5584C83.9613 1.9895 84.9556 2.94904 86.0437 3.74518C86.6998 4.26104 87.4636 4.62264 88.2785 4.80319C89.0934 4.98373 89.9384 4.97859 90.751 4.78815C94.1511 4.05112 95.7399 2.37888 98.5525 0.501521C98.8191 0.297351 99.1251 0.150559 99.4511 0.070385C99.7772 -0.00978942 100.116 -0.0216155 100.447 0.0356541C101.892 0.337384 103.187 1.13118 104.112 2.28153C104.925 3.54354 104.748 5.52171 104.807 6.95755C104.866 8.39338 104.487 9.39116 103.399 10.3889C101.88 11.7622 100.329 13.0903 98.7959 14.4392Z" fill="#263238"/>
<path d="M97.9128 15.6282C99.8875 13.6535 101.82 11.6405 103.771 9.64147C103.771 9.64147 103.771 9.6067 103.771 9.62061C102.119 11.2198 100.447 12.7947 98.8167 14.4148C97.1862 16.0349 95.6878 17.7489 93.9495 19.1917C90.0627 22.4353 85.1989 19.6645 82.6993 16.1531C82.5845 15.9932 82.3516 16.1914 82.4629 16.3478C84.7574 19.362 88.5921 22.0772 92.5137 20.3946C94.6448 19.4767 96.2962 17.2448 97.9128 15.6282Z" fill="#263238"/>
<path d="M98.9141 0.518962C98.9558 0.484196 98.9141 0.425097 98.8585 0.456386C96.6091 2.09734 94.1407 4.22501 91.2586 4.50661C89.8392 4.6426 88.4118 4.34694 87.1632 3.65832C86.1758 3.10902 85.4527 2.26769 84.601 1.54804C81.2739 -1.25757 76.7473 2.31984 76.9351 6.14756C76.9351 6.22752 77.0776 6.22405 77.0776 6.14756C77.0776 3.36629 79.0871 0.810997 82.0144 0.748418C84.3645 0.696269 85.6196 3.20637 87.6256 4.09985C91.7836 5.94244 95.813 3.11597 98.9141 0.518962Z" fill="#263238"/>
<path d="M83.9473 28.3733C83.9473 28.3733 83.6936 25.971 83.7075 25.4739C83.7214 24.9767 86.2593 23.2627 86.2593 23.2627C86.2593 23.2627 86.8573 18.6736 87.337 17.6376C87.4691 17.3491 91.7975 16.9423 92.3607 17.4568C92.9239 17.9714 95.6947 28.5611 95.6947 28.5611L83.9473 28.3733Z" fill="#2C008B"/>
<path opacity="0.5" d="M83.9473 28.3733C83.9473 28.3733 83.6936 25.971 83.7075 25.4739C83.7214 24.9767 86.2593 23.2627 86.2593 23.2627C86.2593 23.2627 86.8573 18.6736 87.337 17.6376C87.4691 17.3491 91.7975 16.9423 92.3607 17.4568C92.9239 17.9714 95.6947 28.5611 95.6947 28.5611L83.9473 28.3733Z" fill="white"/>
<path d="M99.9849 16.1462C102.418 21.0134 106.361 26.6003 107.633 27.3513C109.264 28.3004 117.455 28.2239 117.903 28.1648C119.012 28.0118 118.925 20.485 117.733 20.5963C115.922 20.7666 110.957 21.4689 110.481 21.1699C110.004 20.8709 106.476 18.114 102.784 14.9503C100.249 12.7635 98.476 13.1285 99.9849 16.1462Z" fill="#D3766A"/>
<path d="M121.088 19.8175C122.4 19.5381 123.769 19.7109 124.971 20.3077C126.094 20.8639 126.327 22.8004 126.125 23.228C125.924 23.6556 124.234 26.1206 123.104 25.5886C121.974 25.0567 123.622 23.3254 123.692 23.0716C123.761 22.8178 123.859 22.4945 123.636 22.418C123.414 22.3415 118.838 22.345 118.838 22.345L121.088 19.8175Z" fill="#D3766A"/>
<path d="M121.289 19.7791C121.352 19.807 124.947 20.0434 126.07 20.5996C127.193 21.1559 127.422 23.0923 127.22 23.52C127.019 23.9476 125.333 26.4125 124.203 25.8806C123.073 25.3486 124.721 23.6173 124.79 23.3635C124.86 23.1097 124.957 22.7899 124.731 22.7099C124.505 22.63 119.937 22.6369 119.937 22.6369L121.289 19.7791Z" fill="#D3766A"/>
<path d="M123.886 25.5539C123.861 25.2946 123.904 25.0331 124.012 24.796C124.103 24.5464 124.232 24.312 124.394 24.1007C124.553 23.9277 124.697 23.7416 124.825 23.5444C124.923 23.3351 124.967 23.1041 124.95 22.8734C124.95 22.6718 124.749 22.6474 124.582 22.6301C124.333 22.6162 124.083 22.6162 123.834 22.6301L123.035 22.6579C122.758 22.6566 122.482 22.6729 122.207 22.7065C122.203 22.7082 122.2 22.7108 122.198 22.7142C122.196 22.7176 122.195 22.7216 122.195 22.7257C122.195 22.7297 122.196 22.7337 122.198 22.7371C122.2 22.7405 122.203 22.7432 122.207 22.7448C122.439 22.757 122.671 22.757 122.903 22.7448C123.163 22.7448 123.427 22.7448 123.688 22.7448C123.949 22.7448 124.178 22.7448 124.425 22.7448C124.544 22.7321 124.663 22.7501 124.773 22.7969C124.849 22.856 124.773 23.089 124.773 23.1654C124.725 23.3915 124.611 23.5983 124.446 23.7599C124.291 23.9333 124.153 24.122 124.036 24.3231C123.923 24.5113 123.845 24.7187 123.806 24.935C123.793 25.1409 123.806 25.3477 123.845 25.5504C123.845 25.5886 123.89 25.5817 123.886 25.5539Z" fill="#263238"/>
<path d="M121.811 19.6888C121.88 19.6888 125.451 19.2265 126.661 19.5498C127.871 19.8731 128.482 21.7226 128.368 22.1816C128.253 22.6405 127.088 25.3939 125.875 25.0915C124.662 24.789 125.938 22.7726 125.952 22.5118C125.965 22.2511 126.004 21.9139 125.767 21.8791C125.531 21.8443 121.053 22.7587 121.053 22.7587L121.811 19.6888Z" fill="#D3766A"/>
<path d="M125.5 24.8377C125.425 24.588 125.417 24.3233 125.475 24.0694C125.514 23.8037 125.593 23.5456 125.712 23.3045C125.832 23.1019 125.936 22.8903 126.025 22.6718C126.082 22.4437 126.082 22.2046 126.025 21.9765C125.972 21.7818 125.778 21.7957 125.611 21.8131C125.364 21.8428 125.119 21.8881 124.877 21.9487C124.617 22.0043 124.359 22.0704 124.098 22.1295C123.828 22.1849 123.561 22.2569 123.299 22.345C123.278 22.345 123.281 22.3833 123.299 22.3798C123.533 22.3509 123.765 22.3091 123.994 22.2546L124.769 22.1086C125.009 22.0669 125.249 22.0113 125.493 21.973C125.607 21.9447 125.726 21.9447 125.84 21.973C125.927 22.0147 125.917 22.2546 125.917 22.3207C125.914 22.5513 125.844 22.7762 125.715 22.9673C125.595 23.1672 125.498 23.3793 125.423 23.6001C125.35 23.8078 125.315 24.0267 125.319 24.2467C125.348 24.4506 125.402 24.6502 125.479 24.8412C125.465 24.8794 125.51 24.8621 125.5 24.8377Z" fill="#263238"/>
<path d="M121.635 31.483L123.312 32.3343L129.314 20.5103L127.637 19.6591L121.635 31.483Z" fill="#263238"/>
<path d="M129.605 26.0704L126.261 24.8305L125.524 26.819L128.868 28.0588L129.605 26.0704Z" fill="#263238"/>
<path d="M130.728 26.0348L128.554 25.2288L127.519 28.0192L129.694 28.8252L130.728 26.0348Z" fill="#263238"/>
<path d="M116.297 21.0516C116.297 21.0516 120.344 19.9183 121.289 19.7792C122.541 19.5915 124.505 20.2068 124.571 21.2046C124.571 21.4932 123.327 22.703 123.236 22.9429C122.979 23.5861 123.024 25.0289 124.092 25.5052C125.159 25.9814 126.567 24.7612 127.613 25.0463C128.66 25.3313 127.186 26.8054 126.018 27.5077C124.834 28.1582 123.489 28.4596 122.141 28.3768C121.07 28.2899 117.677 28.1717 117.677 28.1717L116.297 21.0516Z" fill="#D3766A"/>
<path d="M125.746 25.3661C125.204 25.4843 124.568 25.6686 124.036 25.4426C123.504 25.2166 123.302 24.6916 123.261 24.1354C123.19 23.5729 123.337 23.0046 123.671 22.5466C124.008 22.1505 124.452 21.8597 124.95 21.7087C125.56 21.5273 126.192 21.4348 126.828 21.4341C126.855 21.4341 126.848 21.3889 126.828 21.3889C126.24 21.3889 124.443 21.2811 123.511 22.4701C123.173 22.9397 123.028 23.5204 123.104 24.0937C123.091 24.3634 123.146 24.632 123.264 24.875C123.382 25.118 123.559 25.3275 123.779 25.4843C124.377 25.832 125.152 25.5747 125.778 25.4078C125.799 25.387 125.774 25.3591 125.746 25.3661Z" fill="#263238"/>
<path d="M117.67 20.0435L117.041 29.2217C117.041 29.2217 109.25 28.9019 107.571 27.7859C105.892 26.6699 101.64 19.8523 100.047 16.4314C98.4552 13.0104 100.294 12.6627 102.512 14.5227C104.73 16.3827 110.216 20.8744 110.481 20.937C110.745 20.9996 117.67 20.0435 117.67 20.0435Z" fill="#455A64"/>
<path d="M115.41 25.6024C115.494 24.5177 115.584 23.433 115.626 22.3449C115.65 21.726 115.678 21.1107 115.699 20.4918C115.699 20.4675 115.657 20.464 115.657 20.4918C115.529 21.5765 115.407 22.6647 115.327 23.7563C115.247 24.848 115.167 25.9257 115.105 27.0104C115.07 27.6293 115.052 28.2446 115.056 28.8635H115.077C115.237 27.7822 115.327 26.6941 115.41 25.6024Z" fill="#263238"/>
<path d="M117.09 28.3073L117.027 29.2217C117.027 29.2217 109.233 28.9018 107.557 27.7893C105.881 26.6768 101.626 19.8522 100.034 16.4313C98.8689 13.9316 99.5398 13.0694 100.851 13.5179C104.925 17.1544 112.622 24.0728 117.09 28.3073Z" fill="#37474F"/>
<path d="M88.9084 31.0363L107.136 31.3353L105.707 25.877C105.707 25.877 107.22 24.4864 106.469 21.7434C106.034 20.1372 104.014 17.1056 102.745 15.5794C99.6476 11.856 96.9567 13.5386 96.098 14.4947C92.8196 18.1521 88.9084 31.0363 88.9084 31.0363Z" fill="#455A64"/>
<path d="M96.8768 13.8481L100.941 13.9419L101.104 14.0497L96.7273 13.9489C96.776 13.9141 96.8107 13.8794 96.8768 13.8481ZM95.4583 15.3117L102.655 15.4751L102.564 15.3674L95.5348 15.2074L95.4583 15.3117ZM94.5996 16.678L103.753 16.8901L103.677 16.7858L94.6622 16.5807C94.6394 16.6118 94.6185 16.6443 94.5996 16.678ZM93.873 18.0687L104.713 18.319C104.689 18.2842 104.668 18.246 104.643 18.2077L93.9217 17.9644C93.9043 17.9852 93.8869 18.02 93.873 18.0548V18.0687ZM93.2125 19.4593L105.561 19.7409L105.502 19.6401L93.2611 19.3585L93.2125 19.4593ZM92.6075 20.8499L106.253 21.1628C106.253 21.1281 106.225 21.0933 106.211 21.0551L92.6527 20.7456L92.6075 20.8499ZM92.0374 22.2232L106.639 22.5708C106.639 22.5396 106.639 22.5048 106.639 22.47L92.1 22.1224C92.0617 22.1154 92.0478 22.1502 92.0374 22.1815V22.2232ZM91.4916 23.6138L106.625 23.9615C106.625 23.9267 106.625 23.8919 106.625 23.8572L91.5194 23.5095L91.4916 23.6138ZM90.9735 25.0045L106.152 25.3521L106.208 25.2513L91.0118 24.9036L90.9735 25.0045ZM90.4764 26.3951L105.912 26.7427L105.885 26.6385L90.5146 26.2908C90.4973 26.2491 90.4903 26.2838 90.4764 26.3186V26.3951ZM89.9931 27.7857L106.277 28.1612L106.25 28.0569L90.0314 27.5841C90.0212 27.622 90.0084 27.6592 89.9931 27.6953V27.7857ZM89.5342 29.1764L106.646 29.5692L106.618 29.4614L89.5829 29.0721L89.5342 29.1764ZM89.0892 30.567L107.011 30.9772L106.983 30.8695L89.1205 30.3654C89.1066 30.3897 89.0997 30.4279 89.0892 30.4592V30.567Z" fill="white"/>
<path d="M100.83 25.5573C101.609 25.4873 102.392 25.4745 103.173 25.5191C103.562 25.5469 103.945 25.5921 104.331 25.6442C104.522 25.672 104.716 25.6929 104.908 25.7103C105.109 25.7363 105.312 25.7363 105.513 25.7103C105.533 25.7103 105.537 25.7346 105.513 25.7381C105.326 25.7832 105.137 25.8145 104.946 25.832C104.761 25.8441 104.575 25.8441 104.39 25.832C103.993 25.8076 103.601 25.7659 103.208 25.7346C102.415 25.679 101.622 25.6234 100.826 25.6234C100.819 25.6207 100.813 25.616 100.809 25.6099C100.805 25.6037 100.804 25.5964 100.804 25.5891C100.804 25.5817 100.807 25.5747 100.812 25.569C100.816 25.5633 100.823 25.5592 100.83 25.5573Z" fill="#263238"/>
<path d="M99.0566 26.5795C99.6773 26.3998 100.308 26.2547 100.944 26.1449C101.261 26.0893 101.581 26.0545 101.904 26.0267L102.363 25.9954C102.533 25.9954 102.711 25.9954 102.874 25.9954C102.891 25.9954 102.898 26.0197 102.874 26.0197C102.717 26.0371 102.558 26.0788 102.401 26.1032L101.925 26.1762L100.969 26.3292C100.333 26.423 99.6963 26.5204 99.0636 26.6351C99.0323 26.6386 99.0253 26.5899 99.0566 26.5795Z" fill="#263238"/>
<path d="M98.2466 14.0254C98.3404 14.3522 100.02 16.4138 101.525 16.2678C102.015 16.2191 101.873 13.5352 101.873 13.5352L101.907 13.337L102.373 10.5488L99.0079 8.61579L98.5212 8.362C98.5212 8.362 98.4412 9.14076 98.3474 10.1003V10.2394C98.3474 10.295 98.3474 10.3471 98.33 10.3958C98.3126 10.5418 98.2987 10.6878 98.2848 10.8373C98.2709 10.9868 98.2674 11.0564 98.2605 11.185C98.2535 11.3136 98.2605 11.4179 98.2361 11.5326C98.1833 12.3628 98.1868 13.1956 98.2466 14.0254Z" fill="#D3766A"/>
<path d="M98.3613 10.0968C98.681 10.8629 99.1634 11.5504 99.7751 12.1117C100.387 12.673 101.113 13.0946 101.904 13.3474L102.373 10.5488L99.0079 8.61579L98.5212 8.362C98.5212 8.362 98.4551 9.13032 98.3613 10.0968Z" fill="#263238"/>
<path d="M105.968 5.49395C107.296 10.316 104.577 11.6545 103.534 11.9395C102.592 12.2003 99.3452 12.9617 97.5269 8.30303C95.7087 3.6444 97.5061 1.50978 99.6407 0.814459C101.775 0.119141 104.64 0.675398 105.968 5.49395Z" fill="#D3766A"/>
<path d="M105.061 4.8507C104.942 4.8507 104.831 4.8507 104.713 4.8507C104.594 4.86955 104.472 4.85006 104.365 4.79508C104.335 4.77082 104.313 4.73728 104.304 4.69959C104.295 4.6619 104.298 4.62217 104.313 4.58649C104.355 4.51953 104.413 4.46488 104.483 4.4282C104.553 4.39153 104.631 4.37415 104.71 4.37789C104.87 4.36259 105.031 4.40715 105.161 4.50304C105.194 4.52593 105.219 4.55848 105.232 4.59612C105.245 4.63377 105.247 4.67462 105.236 4.71295C105.224 4.75129 105.202 4.78518 105.17 4.80988C105.139 4.83459 105.101 4.84886 105.061 4.8507Z" fill="#263238"/>
<path d="M101.678 5.53567C101.789 5.49395 101.883 5.43832 101.991 5.38617C102.107 5.34787 102.207 5.27206 102.276 5.17062C102.292 5.13452 102.296 5.09403 102.286 5.0556C102.277 5.01717 102.255 4.98301 102.224 4.95855C102.156 4.91919 102.078 4.89847 102 4.89847C101.921 4.89847 101.843 4.91919 101.775 4.95855C101.623 5.01864 101.499 5.13413 101.428 5.28188C101.41 5.31702 101.403 5.35693 101.409 5.39595C101.415 5.43496 101.433 5.47109 101.461 5.49919C101.489 5.52729 101.525 5.54594 101.564 5.55249C101.603 5.55904 101.643 5.55315 101.678 5.53567Z" fill="#263238"/>
<path d="M102.801 6.67253C102.801 6.67253 102.777 6.69687 102.783 6.71077C102.884 7.0341 102.943 7.40609 102.679 7.61468C102.679 7.61468 102.679 7.63902 102.679 7.63207C103.034 7.48257 102.947 6.96456 102.801 6.67253Z" fill="#263238"/>
<path d="M102.412 6.41175C101.873 6.51605 102.123 7.58684 102.624 7.48949C103.124 7.39215 102.863 6.32136 102.412 6.41175Z" fill="#263238"/>
<path d="M102.213 6.51612C102.137 6.59956 102.071 6.7282 101.96 6.76644C101.848 6.80468 101.706 6.72125 101.612 6.63433C101.657 6.84293 101.786 7.03414 102.012 7.01328C102.238 6.99242 102.321 6.77687 102.325 6.56132C102.293 6.53351 102.248 6.48483 102.213 6.51612Z" fill="#263238"/>
<path d="M104.626 6.17184C104.626 6.17184 104.654 6.17184 104.657 6.1927C104.723 6.54036 104.852 6.88802 105.179 6.94365V6.96103C104.807 6.99232 104.633 6.49864 104.626 6.17184Z" fill="#263238"/>
<path d="M104.842 5.75468C105.367 5.59475 105.652 6.65511 105.168 6.79765C104.685 6.94019 104.404 5.89026 104.842 5.75468Z" fill="#263238"/>
<path d="M105.085 5.76516C105.182 5.79992 105.294 5.87988 105.394 5.85902C105.495 5.83816 105.568 5.6991 105.613 5.57047C105.613 5.57047 105.613 5.57047 105.631 5.57047C105.675 5.65887 105.685 5.76 105.661 5.85562C105.637 5.95124 105.579 6.03505 105.499 6.09195C105.328 6.17539 105.151 6.03633 105.05 5.84512C105.029 5.81731 105.043 5.75473 105.085 5.76516Z" fill="#263238"/>
<path d="M103.416 9.40156C103.502 9.48555 103.613 9.53718 103.733 9.54758C103.858 9.52179 103.977 9.46964 104.08 9.39461C104.08 9.39461 104.105 9.39461 104.098 9.39461C104.063 9.46975 104.008 9.53387 103.94 9.57988C103.871 9.6259 103.791 9.65202 103.708 9.65535C103.636 9.6529 103.567 9.62817 103.51 9.58457C103.452 9.54098 103.41 9.48068 103.388 9.41199C103.364 9.40504 103.388 9.39461 103.416 9.40156Z" fill="#263238"/>
<path d="M104.487 7.86498C104.581 8.09249 104.663 8.32455 104.734 8.5603C104.734 8.58463 104.689 8.60897 104.609 8.63331C104.418 8.71966 104.208 8.75173 104.001 8.72596C103.793 8.70019 103.597 8.61759 103.434 8.48729C103.413 8.46991 103.434 8.43861 103.461 8.44557C103.808 8.57415 104.187 8.58876 104.543 8.48729C104.543 8.41776 104.195 7.68072 104.226 7.67029C104.411 7.64371 104.598 7.64371 104.783 7.67029C104.414 6.66556 103.889 5.73035 103.538 4.72214C103.537 4.71504 103.539 4.70792 103.542 4.70173C103.546 4.69554 103.551 4.6906 103.558 4.68756C103.564 4.68452 103.571 4.68354 103.578 4.68475C103.585 4.68596 103.592 4.68931 103.597 4.69433C104.191 5.68571 104.685 6.73387 105.071 7.82326C105.113 7.93799 104.591 7.88236 104.487 7.86498Z" fill="#263238"/>
<path d="M104.546 8.54285C104.467 8.76675 104.332 8.96663 104.153 9.12344C104.055 9.20506 103.933 9.25476 103.806 9.26598C103.524 9.26598 103.437 9.04348 103.42 8.82445C103.406 8.70897 103.406 8.59227 103.42 8.47679C103.778 8.61891 104.173 8.64206 104.546 8.54285Z" fill="#263238"/>
<path d="M104.153 9.12347C104.055 9.20509 103.933 9.2548 103.806 9.26601C103.524 9.26601 103.437 9.04351 103.42 8.82448C103.558 8.78593 103.705 8.79438 103.838 8.8485C103.97 8.90263 104.081 8.99935 104.153 9.12347Z" fill="#FF9BBC"/>
<path d="M97.7459 8.8627C98.0285 8.64163 98.2492 8.35143 98.3868 8.02013C98.5245 7.68883 98.5744 7.32763 98.5316 6.97144C99.3129 6.41238 99.9309 5.65512 100.322 4.7777C100.322 4.88548 100.228 5.66771 100.173 6.06405C103.173 4.8229 103.649 2.2398 103.649 2.2398C104.362 2.66241 104.97 3.23987 105.429 3.92942C105.429 3.92942 105.047 2.01034 103.788 0.936076C103.374 0.555228 102.865 0.292162 102.315 0.174176C101.765 0.0561905 101.193 0.0875797 100.659 0.265091C99.8486 0.24241 99.0467 0.438307 98.3377 0.832238C97.6288 1.22617 97.0389 1.80362 96.6299 2.50402C95.0724 5.13232 97.7459 8.8627 97.7459 8.8627Z" fill="#263238"/>
<path d="M102.439 5.04542C101.995 5.42624 101.498 5.73907 100.962 5.97367C101.789 5.5482 102.481 4.90048 102.961 4.10327C103.163 3.76303 103.322 3.39858 103.434 3.01857C103.573 2.60722 103.628 2.17227 103.597 1.73919C103.597 1.7079 103.642 1.70442 103.646 1.73919C103.719 2.1637 103.719 2.59754 103.646 3.02205C103.561 3.44102 103.4 3.84067 103.169 4.20062C102.965 4.51975 102.716 4.80779 102.429 5.05585L102.439 5.04542Z" fill="#263238"/>
<path d="M96.5535 8.81061L96.3379 8.75151C96.3657 8.65069 96.616 7.77459 97.0784 7.5938C97.5408 7.41302 100.465 7.06884 100.59 7.05493L100.614 7.27396C99.7693 7.37478 97.4852 7.66681 97.1584 7.79892C96.8316 7.93103 96.616 8.5603 96.5535 8.81061Z" fill="#A6A6A6"/>
<path d="M103.649 6.82896L103.475 6.69337C103.677 6.43611 104.171 6.0363 104.668 6.37353L104.543 6.55431C104.112 6.25184 103.67 6.8081 103.649 6.82896Z" fill="#A6A6A6"/>
<g opacity="0.9">
<path d="M102.669 8.74432C102.539 8.7896 102.405 8.81993 102.269 8.83472C101.961 8.86541 101.651 8.80899 101.373 8.67189C101.096 8.53479 100.863 8.32252 100.7 8.05928C100.538 7.79604 100.452 7.49242 100.454 7.18302C100.455 6.87362 100.544 6.57088 100.709 6.30932C100.874 6.04776 101.11 5.8379 101.389 5.70365C101.667 5.5694 101.978 5.51616 102.286 5.55001C102.593 5.58386 102.885 5.70343 103.128 5.89509C103.371 6.08675 103.555 6.34279 103.66 6.63404C103.72 6.79897 103.753 6.97285 103.757 7.14857C103.766 7.495 103.665 7.83537 103.47 8.12167C103.275 8.40798 102.994 8.62576 102.669 8.74432Z" fill="#37474F"/>
<g opacity="0.1">
<path d="M102.512 5.58775L100.555 7.74324C100.455 7.45989 100.434 7.15438 100.496 6.86019L101.622 5.61557C101.911 5.52498 102.219 5.51536 102.512 5.58775Z" fill="white"/>
<path d="M103.472 6.26215L101.33 8.63666C101.237 8.58405 101.149 8.52356 101.066 8.45588L103.284 6.02226C103.354 6.09596 103.417 6.1763 103.472 6.26215Z" fill="white"/>
<path d="M103.687 6.72465L101.789 8.81061H101.716L103.667 6.65512L103.687 6.72465Z" fill="white"/>
</g>
</g>
<g opacity="0.9">
<path d="M106.076 7.99355C106.04 7.99663 106.004 7.99663 105.968 7.99355C105.339 8.05613 104.706 7.46859 104.525 6.62377C104.429 6.22379 104.463 5.80361 104.623 5.42435C104.683 5.25959 104.785 5.11283 104.917 4.99768C105.05 4.88252 105.209 4.80269 105.381 4.76559C105.553 4.7285 105.731 4.73533 105.899 4.78546C106.067 4.83558 106.22 4.92739 106.344 5.05235C106.641 5.33108 106.844 5.6957 106.924 6.09533C107.122 7.00967 106.736 7.85448 106.076 7.99355Z" fill="#37474F"/>
<g opacity="0.1">
<path d="M106.921 6.10245L105.332 7.84074C105.143 7.7264 104.981 7.57358 104.856 7.39226L106.643 5.41756C106.776 5.6272 106.87 5.85923 106.921 6.10245Z" fill="white"/>
<path d="M106.02 4.85075L104.504 6.52647C104.503 6.49983 104.503 6.47314 104.504 6.44651L105.972 4.82642L106.02 4.85075Z" fill="white"/>
</g>
</g>
<path d="M97.8537 9.97877C97.9334 9.98862 98.0139 9.98862 98.0936 9.97877C98.1728 9.97939 98.2516 9.96646 98.3265 9.94053C98.4243 9.91381 98.5147 9.86505 98.5907 9.79799C98.6522 9.74682 98.7061 9.68712 98.7507 9.62068C98.8147 9.52686 98.8607 9.42193 98.8862 9.31127L98.3717 8.04579C98.3717 8.04579 97.0158 6.71077 96.3901 7.22183C95.7643 7.73289 96.988 9.8258 97.8537 9.97877Z" fill="#D3766A"/>
<path d="M96.762 7.8232C96.762 7.8232 96.762 7.84406 96.762 7.84753C97.0496 7.92921 97.3168 8.07048 97.5462 8.26215C97.7756 8.45381 97.9621 8.69159 98.0936 8.96004C98.0495 8.90864 97.9949 8.86738 97.9333 8.83909C97.8718 8.8108 97.8049 8.79614 97.7372 8.79614C97.6695 8.79614 97.6026 8.8108 97.5411 8.83909C97.4796 8.86738 97.4249 8.90864 97.3809 8.96004C97.3809 8.96004 97.3809 8.99133 97.4052 8.98786C97.4997 8.93696 97.6076 8.91665 97.7141 8.92973C97.8206 8.9428 97.9204 8.98863 97.9997 9.06087C98.1282 9.18518 98.2446 9.32138 98.3474 9.46763C98.3821 9.51282 98.469 9.46763 98.4378 9.412C98.3161 8.67149 97.5582 7.76758 96.762 7.8232Z" fill="#263238"/>
<path d="M95.6148 15.0094C92.8335 17.7907 85.929 28.4777 87.9315 30.5393C89.934 32.601 102.081 30.1152 105.363 28.6863C106.337 28.2622 102.335 22.0182 101.191 22.1747C100.246 22.3068 95.3749 24.059 95.2463 23.7774C95.1176 23.4958 95.9416 21.1804 97.2418 17.0467C98.7576 12.2872 96.842 13.7787 95.6148 15.0094Z" fill="#D3766A"/>
<path d="M99.0775 24.0519C100.367 22.7529 101.801 21.6052 103.35 20.6309C104.859 19.7514 108.353 18.1973 112.9 20.7422C113.982 21.3471 115.091 22.9707 112.97 22.6265C111.465 22.3796 110.585 21.7712 109.681 21.7886C109.681 21.7886 110.849 24.0206 110.203 25.0775C109.638 26.0031 109.008 26.8872 108.318 27.7232C108.137 27.6306 107.962 27.5273 107.793 27.4138C107.793 27.4138 107.098 28.3455 105.36 28.6897L99.0775 24.0519Z" fill="#D3766A"/>
<path d="M104.925 20.0191C105.822 20.1895 107.706 20.5858 109.16 21.4515C110.762 22.411 113.585 24.6917 112.862 25.8667C112.334 26.7289 111.179 25.9502 111.179 25.9502C111.179 25.9502 112.149 27.1392 111.499 27.8136C110.912 28.4255 110.053 27.7719 110.053 27.7719C110.053 27.7719 110.515 28.5959 109.834 29.0756C109.014 29.6528 108.176 27.838 106.841 27.7059C106.545 27.6746 104.925 20.0191 104.925 20.0191Z" fill="#D3766A"/>
<path d="M107.866 22.9742C109.245 23.5937 110.402 24.6184 111.183 25.9119C111.2 25.9466 111.183 25.9779 111.162 25.9501C110.184 24.833 109.073 23.8384 107.856 22.9881C107.856 22.9881 107.856 22.9707 107.866 22.9742Z" fill="#263238"/>
<path d="M106.942 24.6151C108.247 25.3575 109.328 26.4385 110.07 27.7441C110.07 27.7788 110.07 27.8101 110.05 27.7823C109.129 26.6154 108.079 25.5564 106.921 24.6256C106.921 24.6256 106.935 24.6116 106.942 24.6151Z" fill="#263238"/>
<path d="M109.674 21.7713C110.401 21.7957 111.118 21.9487 111.791 22.2232C112.158 22.3498 112.532 22.4542 112.911 22.5362C113.258 22.6092 113.766 22.7204 114.006 22.3728C114.057 22.2726 114.08 22.1605 114.072 22.0484C114.064 21.9363 114.025 21.8285 113.961 21.7365C113.782 21.4732 113.564 21.2387 113.314 21.0412C113.314 21.0412 113.314 21.0169 113.314 21.0238C113.554 21.2036 113.776 21.4074 113.975 21.6322C114.107 21.7874 114.189 21.9788 114.211 22.1815C114.211 22.6161 113.766 22.8108 113.398 22.8004C113.176 22.7863 112.956 22.7514 112.74 22.6961C112.535 22.6474 112.33 22.5883 112.125 22.5257C111.708 22.3936 111.301 22.2406 110.884 22.105C110.483 21.9816 110.074 21.884 109.66 21.813L109.674 21.7713Z" fill="#263238"/>
<path d="M111.976 23.8746C111.252 23.13 110.481 22.4332 109.667 21.7886C109.667 21.7886 109.667 21.7643 109.667 21.7678C110.555 22.3042 111.372 22.9488 112.101 23.6869C112.495 24.085 112.806 24.5577 113.015 25.0775C113.109 25.2851 113.119 25.5211 113.042 25.7357C112.966 25.9504 112.809 26.1269 112.605 26.2283C112.395 26.3337 112.157 26.3656 111.927 26.3186C111.653 26.2449 111.397 26.1172 111.173 25.9432C111.173 25.9432 111.173 25.9154 111.173 25.9223C111.356 26.0525 111.566 26.139 111.788 26.1752C112.01 26.2113 112.237 26.1962 112.452 26.1309C112.631 26.0561 112.773 25.9137 112.848 25.7346C112.906 25.5174 112.884 25.2866 112.786 25.0845C112.584 24.6394 112.31 24.2306 111.976 23.8746Z" fill="#263238"/>
<path d="M99.7693 22.4388L103.18 30.3029C103.18 30.3029 88.6825 33.0424 87.5352 30.4941C86.3879 27.9457 92.3016 18.326 94.9195 15.5691C97.951 12.3602 98.2848 13.5005 97.5408 16.4104C96.762 19.4559 95.3088 23.8503 95.3088 23.8503L99.7693 22.4388Z" fill="#455A64"/>
<path d="M90.8588 25.7624C91.5436 25.3239 92.2593 24.9358 93.0004 24.6013C93.7335 24.2723 94.49 23.998 95.2636 23.7808C95.7017 23.6521 96.1467 23.5444 96.5917 23.4331C96.5917 23.4331 96.6091 23.4505 96.5917 23.454C95.8154 23.6757 95.0527 23.9427 94.3076 24.2536C93.5671 24.5526 92.83 24.869 92.0965 25.1958C91.6828 25.3835 91.2795 25.5886 90.8727 25.7868L90.8588 25.7624Z" fill="#263238"/>
<path d="M99.7311 22.4145C99.6581 22.4319 95.4861 23.6313 95.354 23.6869C95.3714 23.6278 96.4526 20.3563 96.4665 20.3251C96.543 20.1929 96.9359 19.4733 97.0263 19.2821C96.9255 19.4524 96.623 19.8627 96.5813 19.9426C96.6612 19.7271 97.0019 18.6285 97.1062 18.2808C97.1062 18.2808 97.1062 18.2808 97.0889 18.2808C96.55 19.2821 94.9716 24.045 94.9786 24.0415C94.9855 24.0381 99.6685 22.4979 99.7519 22.4666C99.7588 22.4639 99.7644 22.4585 99.7673 22.4516C99.7702 22.4448 99.7703 22.437 99.7676 22.4301C99.7648 22.4232 99.7594 22.4177 99.7526 22.4148C99.7457 22.4118 99.738 22.4117 99.7311 22.4145Z" fill="#263238"/>
<path d="M99.8214 27.473C99.4494 26.5934 99.0809 25.7138 98.6707 24.8516C98.4412 24.3614 98.2118 23.8677 97.9754 23.3775C97.9754 23.3775 97.9336 23.3775 97.9406 23.3775C98.2883 24.2745 98.6359 25.1715 99.0079 26.051C99.3799 26.9306 99.7623 27.8067 100.155 28.6759C100.387 29.1742 100.625 29.6621 100.868 30.1395H100.885C100.576 29.2391 100.2 28.356 99.8214 27.473Z" fill="#263238"/>
<path d="M103.364 30.4315C103.225 30.1881 103.058 29.837 102.912 29.6005C102.874 29.538 102.825 29.5484 102.857 29.6005C102.957 29.8196 103.041 30.0664 103.142 30.2959L102.53 30.3932L101.834 30.5184C101.375 30.5949 100.913 30.6679 100.444 30.7374C99.5167 30.8765 98.578 30.9923 97.6277 31.0851C95.7425 31.2983 93.8476 31.4143 91.9504 31.4327C91.422 31.4327 90.9075 31.4327 90.3617 31.3979C89.8382 31.3832 89.316 31.3402 88.7972 31.2693C88.7972 31.2693 88.7798 31.2902 88.7972 31.2937C89.2427 31.4035 89.696 31.4791 90.1531 31.5196C90.6328 31.5579 91.1126 31.5857 91.5924 31.5961C92.5484 31.617 93.508 31.5961 94.4605 31.5335C96.3553 31.4258 98.2466 31.2345 100.124 30.9703C100.652 30.8938 101.167 30.8139 101.702 30.727L102.495 30.5914C102.789 30.5633 103.08 30.5098 103.364 30.4315Z" fill="#263238"/>
<path d="M132.38 24.5108C131.573 24.9291 130.838 25.4737 130.203 26.124C129.338 27.08 128.236 30.0595 128.236 30.0595C128.236 30.0595 138.161 31.0712 138.133 30.3306C138.106 29.5901 132.38 24.5108 132.38 24.5108Z" fill="#263238"/>
<path d="M64.4367 26.7497C64.4367 26.7497 63.0878 18.1973 62.5211 17.8114C61.9544 17.4255 54.0139 17.3803 53.482 17.7245C52.9501 18.0687 52.6893 21.8164 52.2374 21.8964C51.7854 21.9764 49.0771 22.2927 48.2045 22.616C47.3319 22.9394 47.2937 25.8284 47.2937 25.8284L64.4367 26.7497Z" fill="#2C008B"/>
<path opacity="0.5" d="M64.4367 26.7497C64.4367 26.7497 63.0878 18.1973 62.5211 17.8114C61.9544 17.4255 54.0139 17.3803 53.482 17.7245C52.9501 18.0687 52.6893 21.8164 52.2374 21.8964C51.7854 21.9764 49.0771 22.2927 48.2045 22.616C47.3319 22.9394 47.2937 25.8284 47.2937 25.8284L64.4367 26.7497Z" fill="white"/>
<path d="M190.755 67.4677L147.83 67.7528C147.83 67.7528 150.124 41.2021 170.775 42.9856C191.426 44.7691 190.755 67.4677 190.755 67.4677Z" fill="#2C008B"/>
<path opacity="0.5" d="M190.755 67.4677L147.83 67.7528C147.83 67.7528 150.124 41.2021 170.775 42.9856C191.426 44.7691 190.755 67.4677 190.755 67.4677Z" fill="black"/>
<path d="M62.2743 67.4398L19.4705 64.2065C19.4705 64.2065 23.931 37.9305 44.3664 41.4036C64.8018 44.8767 62.2743 67.4398 62.2743 67.4398Z" fill="#2C008B"/>
<path opacity="0.5" d="M62.2743 67.4398L19.4705 64.2065C19.4705 64.2065 23.931 37.9305 44.3664 41.4036C64.8018 44.8767 62.2743 67.4398 62.2743 67.4398Z" fill="black"/>
<path opacity="0.6" d="M157.303 27.8067L158.214 28.3282C158.214 28.3282 152.46 28.8601 151.192 28.7176C149.923 28.575 127.405 14.62 127.092 14.4844C126.779 14.3488 112.125 8.81059 112.125 8.81059C112.125 8.81059 132.202 15.204 133.499 15.6734C134.796 16.1427 157.303 27.8067 157.303 27.8067Z" fill="white"/>
<path d="M208.952 63.3236C208.952 63.3236 204.62 67.2835 203.274 67.652C201.929 68.0205 189.472 69.1365 188.735 68.8931C187.998 68.6498 191.802 46.0102 170.514 44.7413C149.227 43.4723 151.567 69.8422 151.046 69.8318C150.524 69.8214 60.0945 69.1365 59.6877 68.7645C59.2809 68.3925 62.4203 44.4805 41.7485 44.2198C21.9563 43.9695 23.0827 65.8615 22.3004 65.8859C21.5182 65.9102 6.33595 64.0885 5.06004 63.7408C3.78413 63.3932 1.93111 59.7045 1.79552 59.3847C1.65993 59.0648 2.06322 58.22 2.06322 58.22C2.06322 58.22 0.102424 51.9621 0.00160256 49.4729C-0.0992185 46.9837 4.5907 40.0687 4.5907 40.0687L7.88303 28.9888C7.88303 28.9888 6.34638 28.071 6.14474 27.7546C5.94309 27.4383 5.72407 26.2458 5.72407 26.2458L37.4514 23.6384C37.8139 23.3843 38.2005 23.1665 38.6057 22.9882C38.9533 22.8978 40.9941 22.8387 40.9941 22.8387C40.9941 22.8387 44.3177 25.3558 45.677 25.6826C47.0364 26.0094 137.139 30.4142 137.64 30.2543C138.14 30.0944 125.246 17.3388 123.928 16.1289C122.61 14.9191 111.385 11.8214 111.249 11.4912C111.113 11.1609 111.082 8.53605 111.437 8.5743C111.791 8.61254 125.958 13.817 127.582 14.7209C129.206 15.6248 150.875 28.4152 151.515 28.669C152.155 28.9228 158.155 28.37 158.214 28.3213C158.273 28.2727 157.303 27.932 157.303 27.8068C157.303 27.6816 158.899 28.0501 159.243 28.0501C159.588 28.0501 185.45 31.9022 189.702 33.4145C193.954 34.9268 200.302 38.8241 203.153 41.5637C206.003 44.3032 208.628 48.4751 209.105 48.7567C209.581 49.0383 210.728 49.1044 210.93 50.9226C211.131 52.7409 210.874 54.6078 210.471 54.9972C210.068 55.3866 208.771 55.7933 208.639 55.9428C208.507 56.0923 208.333 60.4624 208.399 60.6223C208.465 60.7822 208.99 60.9074 209.045 61.2933C209.101 61.6792 209.216 62.8891 208.952 63.3236Z" fill="#2C008B"/>
<path opacity="0.3" d="M154.453 53.311C153.956 54.2633 153.527 55.2497 153.17 56.2626C137.525 55.7724 66.5714 53.5126 66.7104 52.8243C66.8495 52.1359 141.961 53.1198 154.453 53.311Z" fill="white"/>
<path d="M186.961 65.4941C188.257 56.1774 181.755 47.574 172.438 46.2779C163.122 44.9818 154.518 51.4838 153.222 60.8004C151.926 70.1171 158.428 78.7205 167.745 80.0166C177.061 81.3127 185.665 74.8108 186.961 65.4941Z" fill="#263238"/>
<path d="M175.082 74.5494C181.376 71.8009 184.251 64.4703 181.502 58.1762C178.754 51.8821 171.423 49.0078 165.129 51.7563C158.835 54.5048 155.96 61.8354 158.709 68.1295C161.458 74.4236 168.788 77.2979 175.082 74.5494Z" fill="#DBDBDB"/>
<path d="M178.21 71.2637C182.688 66.786 182.688 59.5263 178.21 55.0486C173.733 50.5709 166.473 50.5709 161.995 55.0486C157.517 59.5263 157.518 66.786 161.995 71.2637C166.473 75.7413 173.733 75.7413 178.21 71.2637Z" fill="#A6A6A6"/>
<path d="M167.907 60.5699L171.47 60.0519C170.014 58.4909 173.324 51.8159 173.324 51.8159L171.359 51.4682C170.424 53.7906 169.892 54.5102 168.867 54.6597C167.841 54.8092 167.128 54.2703 165.56 52.313L163.784 53.2135C163.784 53.2135 168.856 58.6578 167.907 60.5699Z" fill="#DBDBDB"/>
<path d="M171.801 60.2258L173.397 63.4556C174.44 61.5887 181.799 62.6734 181.799 62.6734L181.528 60.6917C179.032 60.5214 178.184 60.2363 177.725 59.3011C177.266 58.3659 177.558 57.5245 178.935 55.4351L177.544 54.0201C177.544 54.0201 173.915 60.5387 171.801 60.2258Z" fill="#DBDBDB"/>
<path d="M173.334 63.8206L170.754 66.3377C172.84 66.7445 174.095 74.087 174.095 74.087L175.896 73.2179C175.288 70.7843 175.295 69.8977 176.039 69.1746C176.783 68.4515 177.673 68.4619 180.089 69.1294L181 67.3563C181 67.3563 173.689 65.9275 173.334 63.8206Z" fill="#DBDBDB"/>
<path d="M170.386 66.3898L167.198 64.7141C167.459 66.8348 160.86 70.2767 160.86 70.2767L162.251 71.7194C164.371 70.3914 165.223 70.1237 166.141 70.6035C167.059 71.0832 167.323 71.9419 167.438 74.4451L169.405 74.7615C169.405 74.7615 168.495 67.3807 170.386 66.3898Z" fill="#DBDBDB"/>
<path d="M167.038 64.3803L167.643 60.8307C165.71 61.7311 160.384 56.5232 160.384 56.5232L159.442 58.2823C161.361 59.892 161.875 60.6186 161.701 61.6407C161.527 62.6629 160.797 63.1774 158.451 64.0743L158.757 66.0456C158.757 66.0456 165.508 62.8854 167.038 64.3803Z" fill="#DBDBDB"/>
<path d="M166.798 63.5564C166.893 64.2076 167.179 64.816 167.619 65.3047C168.06 65.7934 168.636 66.1405 169.274 66.302C169.912 66.4635 170.583 66.4322 171.203 66.2121C171.823 65.992 172.364 65.593 172.758 65.0654C173.151 64.5379 173.379 63.9056 173.413 63.2484C173.447 62.5913 173.285 61.9388 172.948 61.3735C172.612 60.8082 172.115 60.3555 171.52 60.0727C170.926 59.7898 170.262 59.6895 169.611 59.7843C169.178 59.8473 168.762 59.9949 168.387 60.2186C168.012 60.4422 167.684 60.7376 167.423 61.0879C167.162 61.4382 166.972 61.8365 166.865 62.26C166.758 62.6836 166.735 63.1241 166.798 63.5564Z" fill="#DBDBDB"/>
<path d="M50.1821 77.6253C58.1548 72.6337 60.5715 62.124 55.5799 54.1513C50.5883 46.1786 40.0786 43.7619 32.1059 48.7535C24.1332 53.7451 21.7165 64.2547 26.7081 72.2275C31.6997 80.2002 42.2093 82.6169 50.1821 77.6253Z" fill="#263238"/>
<path d="M50.5799 71.2955C55.0513 66.0823 54.4499 58.2314 49.2368 53.76C44.0236 49.2886 36.1727 49.89 31.7013 55.1031C27.2299 60.3163 27.8312 68.1672 33.0444 72.6386C38.2576 77.11 46.1085 76.5086 50.5799 71.2955Z" fill="#DBDBDB"/>
<path d="M52.1449 66.4204C53.9253 60.3434 50.4424 53.9738 44.3655 52.1933C38.2885 50.4128 31.9189 53.8958 30.1384 59.9727C28.3579 66.0496 31.8409 72.4193 37.9178 74.1998C43.9947 75.9803 50.3644 72.4973 52.1449 66.4204Z" fill="#A6A6A6"/>
<path d="M38.9464 60.6118L42.5099 60.0938C41.0532 58.5293 44.3629 51.8577 44.3629 51.8577L42.3951 51.5101C41.4599 53.8324 40.928 54.5521 39.9024 54.7016C38.8768 54.8511 38.1641 54.3122 36.5997 52.3549L34.8197 53.2553C34.8197 53.2553 39.8955 58.6996 38.9464 60.6118Z" fill="#DBDBDB"/>
<path d="M42.8401 60.2642L44.4324 63.4905C45.4754 61.6235 52.8388 62.7082 52.8388 62.7082L52.5677 60.73C50.0715 60.5597 49.2232 60.2746 48.7643 59.3394C48.3054 58.4042 48.5939 57.5629 49.9741 55.47L48.5835 54.0585C48.5835 54.0585 44.9504 60.5771 42.8401 60.2642Z" fill="#DBDBDB"/>
<path d="M44.3698 63.8623L41.7937 66.3758C43.8796 66.7861 45.1347 74.1286 45.1347 74.1286L46.9321 73.2595C46.3237 70.8259 46.3341 69.9393 47.0746 69.2127C47.8151 68.4861 48.7121 68.5174 51.1249 69.171L52.0357 67.3945C52.0357 67.3945 44.7279 65.9691 44.3698 63.8623Z" fill="#DBDBDB"/>
<path d="M41.4252 66.4317L38.2371 64.756C38.4944 66.8767 31.8958 70.3185 31.8958 70.3185L33.2865 71.7613C35.4072 70.4332 36.259 70.1655 37.1768 70.6453C38.0946 71.1251 38.3588 71.9838 38.4701 74.4695L40.4378 74.7894C40.4378 74.7894 39.5304 67.419 41.4252 66.4317Z" fill="#DBDBDB"/>
<path d="M38.0564 64.4361L38.6648 60.8865C36.7283 61.787 31.4056 56.579 31.4056 56.579L30.46 58.3382C32.3791 59.9479 32.8936 60.6745 32.7233 61.6966C32.5529 62.7187 31.8159 63.2332 29.4727 64.1128L29.7786 66.084C29.7786 66.084 36.544 62.9273 38.0564 64.4361Z" fill="#DBDBDB"/>
<path d="M37.8339 63.5983C37.9286 64.2493 38.2143 64.8576 38.6548 65.3464C39.0952 65.8351 39.6707 66.1823 40.3084 66.344C40.9461 66.5057 41.6175 66.4747 42.2376 66.255C42.8577 66.0352 43.3988 65.6365 43.7923 65.1093C44.1859 64.5821 44.4144 63.9501 44.4488 63.2931C44.4832 62.6361 44.3221 61.9836 43.9858 61.4181C43.6494 60.8527 43.153 60.3996 42.5592 60.1163C41.9655 59.8329 41.301 59.732 40.6499 59.8262C39.7769 59.9543 38.9903 60.4233 38.4625 61.1303C37.9346 61.8374 37.7086 62.7248 37.8339 63.5983Z" fill="#DBDBDB"/>
<path d="M7.74398 29.4859C6.54108 29.8335 4.20481 33.0876 4.09008 33.7238C3.97535 34.3601 3.81543 38.5459 4.30563 39.0952C4.79583 39.6445 6.4785 40.9378 7.74398 40.8057C9.00946 40.6735 17.0091 36.8841 17.4784 36.2861C17.9478 35.6881 17.9165 32.5766 17.1308 31.6866C16.3451 30.7965 9.27715 29.0583 7.74398 29.4859Z" fill="white"/>
<path d="M17.4889 36.3035C17.0091 36.8875 9.00945 40.6735 7.7544 40.8056C6.79139 40.9065 5.58154 40.1729 4.84798 39.5784C5.85271 40.0304 6.75315 40.1625 7.42065 39.9956C8.08816 39.8287 15.7645 36.5503 16.4007 35.7681C17.0369 34.9858 16.6997 32.4271 16.5363 31.9821C16.3729 31.5371 9.98985 29.5484 9.98985 29.5484C12.8685 29.8092 16.5954 31.0886 17.1377 31.69C17.9234 32.5905 17.9686 35.7159 17.4889 36.3035Z" fill="#EBEBEB"/>
<path d="M186.872 37.8992C187.734 39.9052 195.602 44.39 198.644 45.36C200.559 45.9719 207.304 47.4007 207.749 47.0983C208.194 46.7958 205.586 41.7756 204.053 40.4197C202.52 39.0639 194.444 34.9719 191.857 34.7112C189.271 34.4504 185.999 35.8724 186.872 37.8992Z" fill="white"/>
<path d="M207.752 47.1053C207.304 47.4043 200.563 45.9719 198.644 45.367C195.601 44.3936 187.734 39.9122 186.868 37.9028C186.003 35.8933 189.271 34.4679 191.857 34.7252C192.059 34.7452 192.258 34.7789 192.455 34.826C189.935 35.3544 189.17 37.1518 190.47 38.4347C191.77 39.7175 196.067 42.8986 197.858 43.6948C199.596 44.4631 206.129 46.4934 206.772 46.1284C206.902 46.0134 207.006 45.8707 207.074 45.7107C207.143 45.5507 207.175 45.3775 207.168 45.2036C207.648 46.2014 207.919 46.9941 207.752 47.1053Z" fill="#EBEBEB"/>
<g opacity="0.1">
<path d="M188.593 65.8543C188.634 67.6622 188.568 68.8373 188.735 68.8929C189.472 69.1362 201.925 68.0272 203.274 67.6517C204.623 67.2763 208.952 63.3199 208.952 63.3199C208.952 63.3199 208.972 63.2851 208.979 63.2643C204.448 64.783 199.726 65.6573 194.951 65.8613C194.082 65.8926 191.882 65.8891 188.593 65.8543Z" fill="black"/>
<path d="M59.4965 63.0835C59.7572 66.2959 59.5451 68.6461 59.6703 68.7643C60.0736 69.1467 150.496 69.8073 151.025 69.8316C151.167 69.8316 151.101 67.9403 151.341 65.1903C123.723 64.6132 88.0671 63.7858 59.4965 63.0835Z" fill="black"/>
<path d="M1.79552 59.3949C1.93111 59.7148 3.78065 63.4139 5.06004 63.7511C6.33942 64.0883 21.4939 65.9135 22.2761 65.8892C22.4812 65.8892 22.5577 64.3769 22.9123 62.1588C17.8964 62.0175 12.8936 61.5717 7.9317 60.8238C5.82238 60.3586 3.8272 59.4769 2.06322 58.2303C2.06322 58.2303 1.65993 59.0785 1.79552 59.3949Z" fill="black"/>
</g>
<g opacity="0.2">
<path d="M143.995 65.0339C143.995 59.7391 144.172 52.0384 144.273 46.6636C144.311 45.1339 144.35 43.6042 144.371 42.0745C144.403 41.8118 144.379 41.5452 144.301 41.2923C143.098 39.036 139.006 32.5382 137.64 30.2541C139.771 33.4317 141.878 36.6302 143.87 39.9016C144.134 40.4092 144.565 40.9237 144.68 41.4835C144.638 49.3406 144.332 57.1872 143.985 65.0339H143.995Z" fill="black"/>
<path d="M79.2122 27.5145L78.1102 31.9159C77.7243 33.7376 77.0672 35.5733 77.022 37.4332C77.2167 43.9066 77.4044 52.4869 77.4739 58.9881L77.4948 63.5251L77.3036 59.0055C77.0846 52.9666 76.8621 44.6159 76.7543 38.5909C76.7543 37.9234 76.6743 36.9569 76.8412 36.3033C77.4878 33.3343 78.3466 30.4349 79.2122 27.5354V27.5145Z" fill="black"/>
<path d="M26.8061 51.3535C23.7085 49.7681 20.6525 48.1029 17.6592 46.3228C17.1327 45.9752 16.6695 45.5401 16.2894 45.0365C15.754 44.4177 15.2186 43.7954 14.7076 43.1557C13.6646 41.8832 12.6633 40.6004 11.6864 39.2862L13.3065 41.1288C14.5303 42.4951 16.1573 44.5254 17.461 45.7979C20.5517 47.6822 23.7189 49.4344 26.8061 51.3604V51.3535Z" fill="black"/>
<path d="M186.618 36.6231C178.424 35.5801 170.108 34.4641 161.955 33.0978C158.409 31.7628 154.981 30.1949 151.525 28.6791C153.152 29.3048 160.564 32.3121 162.042 32.8058C169.777 34.033 178.921 35.3054 186.628 36.63L186.618 36.6231Z" fill="black"/>
<path d="M92.2911 38.1771C92.0721 38.9315 91.7801 39.8667 91.0083 40.2248C89.9695 40.3402 88.9227 40.3669 87.8793 40.3048C86.84 40.2855 85.8039 40.1808 84.7817 39.9919C84.6599 39.9653 84.5427 39.9208 84.434 39.8598C83.8986 39.3696 83.697 38.6638 83.478 38.0033C83.7735 38.5839 84.0586 39.2653 84.5592 39.679C84.7599 39.7442 84.9676 39.785 85.178 39.8007C86.9824 39.9502 88.8285 40.0058 90.6398 40.0162C90.8445 40.0403 91.0506 39.9828 91.2134 39.8563C91.6977 39.3854 92.0696 38.8115 92.3016 38.1771H92.2911Z" fill="black"/>
<path d="M92.3537 36.9952C92.1764 36.3763 91.9678 35.6045 91.4498 35.2256C91.2385 35.1663 91.022 35.1279 90.8032 35.1108C89.4161 34.9878 88.0226 34.9541 86.6313 35.01C85.6891 35.01 84.8374 35.1873 84.1768 35.9C83.8357 36.2084 83.5469 36.57 83.3216 36.9708C83.4954 36.531 83.7501 36.1277 84.0725 35.7818C84.3865 35.4129 84.7768 35.1164 85.2163 34.9127C85.6765 34.7766 86.1518 34.6984 86.6313 34.6797C88.0366 34.5892 89.4476 34.6452 90.8414 34.8466C91.0864 34.8822 91.3266 34.9452 91.5576 35.0343C92.1417 35.5141 92.2529 36.3033 92.3537 36.9952Z" fill="black"/>
<path d="M92.0687 36.9222C93.5045 37.2351 93.4141 38.0764 91.9783 38.2502C90.1809 38.4276 88.373 38.4032 86.5722 38.4102C85.4597 38.3302 84.2289 38.5492 83.1616 38.0625C82.6228 37.7983 82.4663 37.2003 83.0886 36.9013C84.2255 36.4598 85.4944 36.6927 86.673 36.6441C88.4751 36.6473 90.276 36.7413 92.0687 36.9257V36.9222ZM92.0687 36.9222C89.4021 36.6302 86.6626 36.7866 83.9925 36.9743C83.551 37.0126 82.5046 37.322 83.3216 37.76C83.9056 38.059 84.5731 37.9999 85.2302 38.0521C87.4622 38.132 89.7498 38.3198 91.9713 38.2016C93.3932 38.0729 93.4941 37.249 92.0687 36.9222Z" fill="black"/>
</g>
<path d="M208.642 55.9427C208.642 55.9427 200.535 56.6623 200.434 56.638C200.333 56.6136 200.086 55.4977 199.408 55.4664C198.73 55.4351 196.377 57.4445 196.001 59.3775C195.626 61.3105 196.067 62.7602 197.295 62.6142C198.522 62.4682 200.198 59.9859 200.198 59.9859C200.198 59.9859 206.421 59.6383 206.57 59.753C206.82 59.9775 207.086 60.1832 207.366 60.3683C207.705 60.486 208.054 60.5709 208.409 60.6221L208.642 55.9427Z" fill="#263238"/>
<path d="M131.646 33.8734C131.097 33.0494 132.401 26.9202 133.002 26.5135C133.603 26.1067 140.529 27.0419 140.303 30.9704C140.077 34.899 132.501 35.1632 131.646 33.8734Z" fill="#2C008B"/>
<path opacity="0.1" d="M131.646 33.8734C131.097 33.0494 132.401 26.9202 133.002 26.5135C133.603 26.1067 140.529 27.0419 140.303 30.9704C140.077 34.899 132.501 35.1632 131.646 33.8734Z" fill="black"/>
<g opacity="0.4">
<path d="M62.1874 54.2045C60.3761 48.4021 56.0547 43.4028 50.4261 41.0526C43.8727 38.4208 35.8974 38.4903 29.8412 42.3633C26.1093 44.8085 23.2015 48.3221 21.4974 52.4454C22.2318 50.3278 23.2973 48.34 24.6541 46.556C30.54 38.6294 40.9176 36.8216 49.8663 40.1765C55.9504 42.4432 60.6438 47.9745 62.17 54.2115L62.1874 54.2045Z" fill="white"/>
<path d="M190.992 54.587C189.18 48.781 184.859 43.7817 179.23 41.4315C172.677 38.7997 164.702 38.8728 158.645 42.7457C154.913 45.1901 152.005 48.7039 150.302 52.8278C151.042 50.7054 152.114 48.714 153.479 46.928C159.365 39.0049 169.743 37.1936 178.691 40.5485C184.775 42.8152 189.469 48.3499 190.995 54.587H190.992Z" fill="white"/>
<path d="M131.41 38.0139C104.188 36.971 76.6917 35.4586 49.5222 33.4944C76.7439 34.5373 104.24 36.0531 131.41 38.0139Z" fill="white"/>
</g>
</svg>
